<mxfile host="app.diagrams.net" modified="2023-10-11T07:27:18.566Z" agent="Mozilla/5.0 (Windows NT 10.0; Win64; x64) AppleWebKit/537.36 (KHTML, like Gecko) Chrome/117.0.0.0 Safari/537.36" etag="5uqOVtGKmrCFejKQNTIi" version="22.0.4" type="github">
  <diagram name="第 1 页" id="Rw1YrVSh-EQ9irMZU8eE">
    <mxGraphModel dx="1450" dy="582" grid="0" gridSize="10" guides="1" tooltips="1" connect="1" arrows="1" fold="1" page="0" pageScale="1" pageWidth="827" pageHeight="1169" math="0" shadow="0">
      <root>
        <mxCell id="0" />
        <mxCell id="1" parent="0" />
        <mxCell id="patqgSIlUlAklCWZoP-c-3" value="" style="edgeStyle=orthogonalEdgeStyle;rounded=0;orthogonalLoop=1;jettySize=auto;html=1;entryX=0;entryY=0.5;entryDx=0;entryDy=0;" edge="1" parent="1" source="patqgSIlUlAklCWZoP-c-1" target="patqgSIlUlAklCWZoP-c-2">
          <mxGeometry relative="1" as="geometry" />
        </mxCell>
        <mxCell id="patqgSIlUlAklCWZoP-c-5" value="" style="edgeStyle=orthogonalEdgeStyle;rounded=0;orthogonalLoop=1;jettySize=auto;html=1;entryX=0;entryY=0.5;entryDx=0;entryDy=0;" edge="1" parent="1" source="patqgSIlUlAklCWZoP-c-1" target="patqgSIlUlAklCWZoP-c-4">
          <mxGeometry relative="1" as="geometry" />
        </mxCell>
        <mxCell id="patqgSIlUlAklCWZoP-c-1" value="端口扫描" style="rounded=0;whiteSpace=wrap;html=1;" vertex="1" parent="1">
          <mxGeometry x="-39" y="282" width="120" height="60" as="geometry" />
        </mxCell>
        <mxCell id="patqgSIlUlAklCWZoP-c-2" value="22" style="whiteSpace=wrap;html=1;rounded=0;" vertex="1" parent="1">
          <mxGeometry x="141" y="168" width="120" height="60" as="geometry" />
        </mxCell>
        <mxCell id="patqgSIlUlAklCWZoP-c-7" value="" style="edgeStyle=orthogonalEdgeStyle;rounded=0;orthogonalLoop=1;jettySize=auto;html=1;" edge="1" parent="1" source="patqgSIlUlAklCWZoP-c-4" target="patqgSIlUlAklCWZoP-c-6">
          <mxGeometry relative="1" as="geometry" />
        </mxCell>
        <mxCell id="patqgSIlUlAklCWZoP-c-4" value="80" style="whiteSpace=wrap;html=1;rounded=0;" vertex="1" parent="1">
          <mxGeometry x="141" y="381" width="120" height="60" as="geometry" />
        </mxCell>
        <mxCell id="patqgSIlUlAklCWZoP-c-9" value="" style="edgeStyle=orthogonalEdgeStyle;rounded=0;orthogonalLoop=1;jettySize=auto;html=1;" edge="1" parent="1" source="patqgSIlUlAklCWZoP-c-6" target="patqgSIlUlAklCWZoP-c-8">
          <mxGeometry relative="1" as="geometry" />
        </mxCell>
        <mxCell id="patqgSIlUlAklCWZoP-c-6" value="发现一处文件上传的位置, 绕过此完成对文件的上传" style="whiteSpace=wrap;html=1;rounded=0;" vertex="1" parent="1">
          <mxGeometry x="341" y="381" width="120" height="60" as="geometry" />
        </mxCell>
        <mxCell id="patqgSIlUlAklCWZoP-c-11" value="" style="edgeStyle=orthogonalEdgeStyle;rounded=0;orthogonalLoop=1;jettySize=auto;html=1;" edge="1" parent="1" source="patqgSIlUlAklCWZoP-c-8" target="patqgSIlUlAklCWZoP-c-10">
          <mxGeometry relative="1" as="geometry" />
        </mxCell>
        <mxCell id="patqgSIlUlAklCWZoP-c-8" value="获取到 www-data 用户的 Shell" style="whiteSpace=wrap;html=1;rounded=0;" vertex="1" parent="1">
          <mxGeometry x="314.5" y="168" width="173" height="54" as="geometry" />
        </mxCell>
        <mxCell id="patqgSIlUlAklCWZoP-c-10" value="发现特殊 SUID 程序, 利用此完成提权" style="whiteSpace=wrap;html=1;rounded=0;" vertex="1" parent="1">
          <mxGeometry x="592" y="166" width="215" height="59" as="geometry" />
        </mxCell>
      </root>
    </mxGraphModel>
  </diagram>
</mxfile>
